<svg width="100%" height="100%" viewBox="0 0 96 31" xmlns="http://www.w3.org/2000/svg"><path d="M31.5126 16.1577C31.5126 21.0717 34.6549 24.3478 39.1344 24.3478C41.3742 24.3478 43.1793 23.3783 44.2156 21.7403V24.0135H48.3274V0.6132H44.0485V10.5416C43.079 8.90359 41.2739 7.83386 39.0341 7.83386C34.6884 7.83386 31.5126 11.1768 31.5126 16.1577ZM44.2156 16.1577C44.2156 18.9657 42.3102 20.704 40.0036 20.704C37.6301 20.704 35.7915 18.9657 35.7915 16.1577C35.7915 13.3162 37.6301 11.511 40.0036 11.511C42.3102 11.511 44.2156 13.3162 44.2156 16.1577ZM50.0542 19.4337C50.0542 22.4758 52.5279 24.3478 55.2691 24.3478C57.8432 24.3478 59.4812 23.4118 60.5175 21.5732V24.0135H64.4287V14.2522C64.4287 10.107 61.9549 7.83386 57.1411 7.83386C53.2968 7.83386 50.7896 9.73931 49.9539 12.8148L53.6645 13.8176C54.0323 12.2131 55.2023 11.1768 57.1077 11.1768C59.08 11.1768 60.3503 12.2465 60.3503 14.0182V15.0211L58.9463 14.6868C58.0772 14.4528 57.1746 14.3525 56.2386 14.3525C52.4945 14.3525 50.0542 16.0574 50.0542 19.4337ZM60.3503 18.1634C60.3503 20.002 58.9463 21.0717 56.974 21.0717C55.2691 21.0717 54.4 20.3363 54.4 19.1663C54.4 17.9294 55.336 17.2608 56.9071 17.2608C57.5423 17.2608 58.378 17.428 59.3809 17.7288L60.3503 18.0297V18.1634ZM66.8431 8.16815V24.0135H71.122V8.16815H66.8431ZM66.7094 5.79469H71.2892V1.28178H66.7094V5.79469ZM73.5289 24.0135H77.8078V0.6132H73.5289V24.0135ZM91.2797 8.16815L86.9339 17.194L82.8556 8.16815H78.3761L84.7276 21.7737L80.4821 30.6324H84.8279L95.6255 8.16815H91.2797Z" fill="white"></path><path fill-rule="evenodd" clip-rule="evenodd" d="M20.9419 7.07849H26.719V10.3032H20.9419V7.07849ZM26.719 11.57H20.9419V14.7948H26.719V11.57ZM20.9419 16.0616H26.719V19.2863H20.9419V16.0616ZM5.77708 20.5532H3.8147e-06V23.7779H5.77708V20.5532ZM6.98064 20.5532H12.7577V23.7779H6.98064V20.5532ZM19.7384 20.5532H13.9613V23.7779H19.7384V20.5532ZM26.719 20.5532H20.9419V23.7779H26.719V20.5532ZM19.7384 16.0616H13.9613V19.2863H19.7384V16.0616ZM6.98064 16.0616H12.7577V19.2863H6.98064V16.0616ZM12.7577 11.57H6.98064V14.7948H12.7577V11.57Z" fill="white" fill-opacity="0.5"></path></svg>