<svg class="svg-icon" focusable="false" height="24" role="img" width="24" viewBox="0 0 24 24" aria-hidden="true"><path clip-rule="evenodd" fill-rule="evenodd" d="M4 6h6.1v4H4V6zM3 6a1 1 0 0 1 1-1h6.1a1 1 0 0 1 1 1v4a1 1 0 0 1-1 1H4a1 1 0 0 1-1-1V6zm10.9 0H20v4h-6.1V6zm-1 0a1 1 0 0 1 1-1H20a1 1 0 0 1 1 1v4a1 1 0 0 1-1 1h-6.1a1 1 0 0 1-1-1V6zm-2.8 8H4v4h6.1v-4zM4 13a1 1 0 0 0-1 1v4a1 1 0 0 0 1 1h6.1a1 1 0 0 0 1-1v-4a1 1 0 0 0-1-1H4zm9.9 1H20v4h-6.1v-4zm-1 0a1 1 0 0 1 1-1H20a1 1 0 0 1 1 1v4a1 1 0 0 1-1 1h-6.1a1 1 0 0 1-1-1v-4z"></path></svg>